# xmcd CD database file
#
# Track frame offsets:
#	150
#	33021
#	64490
#	89951
#	138645
#
# Disc length: 2577 seconds
#
# Revision: 0
# Processed by: cddbd v1.5.2PL0 Copyright (c) Steve Scherf et al.
# Submitted via: CDex 1.70beta2
#
DISCID=490a0f05
DTITLE=Sonny Rollins - Saxaphone Colossus
DYEAR=1900
DGENRE=Jazz
TTITLE0=St.Thomas
TTITLE1=You Don't Know What Love Is
TTITLE2=Strode Rode
TTITLE3=Moritat (Mack The Knife)
TTITLE4=Blue 7
EXTD=
EXTT0=
EXTT1=
EXTT2=
EXTT3=
EXTT4=
PLAYORDER=
